<svg xmlns="http://www.w3.org/2000/svg" width="200" height="103" viewBox="0 0 200 103">
    <g data-name="New logo">
        <path data-name="패스 1277" d="M440.213 503.1a22.321 22.321 0 0 0 9.139.357c6.583-1.033 14.5-5.966 17.183-17.372l5.022-20.316a.358.358 0 0 0-.349-.442h-7.618s-2.443 9.426-2.894 11.155c-1.594 6.115-4.932 9.533-9.581 9.563-3.1.02-4.27-2.363-3.292-6.8l3.267-13.483a.35.35 0 0 0-.343-.43h-7.36s-1.793 7.356-2.96 11.794c-2.16 8.216.271 14.641 7.481 15.135 3.884.266 7.262-1.624 9.826-4.092l.127.013c-1.481 4.979-3.982 7.741-8.9 8.676a11.038 11.038 0 0 1-6.53-.97.3.3 0 0 0-.434.187l-1.78 7.031" transform="translate(-406.666 -427.754)" style="fill:#060000"/>
        <path data-name="패스 1278" d="M1133.8 472.075h-6.318l4.872-18.1a.349.349 0 0 0-.339-.439h-6.577l-5.087 18.536h-5.551l4.921-18.093a.349.349 0 0 0-.338-.443h-6.443s-4.779 17.215-5.521 19.831c-2.686 9.462-8.669 5.483-11.949 4.675 5.02-3.03 8.776-6.729 10.618-11.975 1.48-4.216.947-8.832-2.1-11.5a12.035 12.035 0 0 0-9.917-2.625 13.618 13.618 0 0 0-9.389 5.969l3.755 4.667a.3.3 0 0 0 .5-.053 8.059 8.059 0 0 1 4.176-4.031c1.926-.652 4.036-.6 5.458.775 1.384 1.338 1.494 4.3-.057 7.171-2.612 4.827-9.948 9.743-16 11.951l2.751 6.506a.3.3 0 0 0 .451.124 9.727 9.727 0 0 1 6.152-1.606c4.228.353 5.183 1.644 9.083 2.11 5.748.687 10.093-2.5 11.9-7.686l5.892.035-3.1 11.257a.349.349 0 0 0 .338.443h6.772l3.147-11.662 6.812.036 1.432-5.443a.349.349 0 0 0-.339-.437" transform="translate(-966.148 -415.968)" style="fill:#060000"/>
        <path data-name="패스 1279" d="M713.336 465.455c-3.331-1.622-5.635-3.106-5.361-5.17.184-1.389 1.893-2.413 4.48-2.177a7.345 7.345 0 0 1 4.3 2.074 11.366 11.366 0 0 1 2.051 2.483.3.3 0 0 0 .466.058l4.744-4.688a13.872 13.872 0 0 0-12.04-6.29c-4.123-.092-8.714 1.29-10.7 5.573a8.192 8.192 0 0 0 1.428 9.015 20.054 20.054 0 0 0 6.4 4.592c3.7 1.789 5.315 3.131 5.051 5.034-.389 2.8-3.239 3.622-5.7 3.3-3.73-.488-6.21-2.578-5.8-6.362l-7.127-1.925a.3.3 0 0 0-.374.247 7.707 7.707 0 0 1-1 2.579 10.429 10.429 0 0 1-10.986 4.951c-5.832-1.226-6.939-7.035-4.982-13.327 1.961-6.307 9.074-9.044 11.608-7.285 1.888 1.31 1.253 4.217-.618 6.235-1.9 2.052-5.484 3.232-9.2 3.3a.358.358 0 0 0-.288.557l3 4.439c7.92.029 14.659-5.425 15.513-10.373.787-4.562-1.334-8.431-5.8-9.9-3.141-1.036-7.461-.605-10.917.748a18.331 18.331 0 0 0-10.532 11.1c-2.128 6.487-1.441 12.047 1.484 15.866a13.694 13.694 0 0 0 10.917 5.413c5.369.22 10.631-1.646 13.946-5.542 1.384 2.4 5.715 5.288 11.062 5.535 8.348.385 13.293-4.163 13.791-9.5.44-4.729-3.281-7.87-8.8-10.559" transform="translate(-606.87 -415.922)" style="fill:#060000"/>
        <path data-name="패스 1280" d="M531.45 399.238c2.079 0 2.886-1.574 3.415-4.046.514-2.406.4-4.046-1.684-4.046s-2.9 1.64-3.415 4.046c-.528 2.471-.395 4.046 1.684 4.046" transform="translate(-484.841 -363.146)" style="fill:#0080ff"/>
        <path data-name="패스 1281" d="M592.806 399.238c2.079 0 2.886-1.574 3.415-4.046.515-2.406.4-4.046-1.684-4.046s-2.9 1.64-3.415 4.046c-.528 2.471-.4 4.046 1.684 4.046" transform="translate(-538.233 -363.146)" style="fill:#0080ff"/>
    </g>
</svg>
